<svg width="42" height="41" viewBox="0 0 42 41" fill="none" xmlns="http://www.w3.org/2000/svg">
<path d="M0.92614 14.5994C0.611509 15.6238 0.401753 16.6481 0.296875 17.6725C0.92614 17.2628 1.66029 16.853 2.49931 16.5457C1.76516 15.8286 1.24077 15.1116 0.92614 14.5994Z" fill="white"/>
<path d="M2.60547 29.8621C3.12986 30.784 3.65425 31.6035 4.28352 32.423C4.3884 31.706 4.59815 30.9889 5.01766 30.1694C4.17864 30.0669 3.33962 29.9645 2.60547 29.8621Z" fill="white"/>
<path d="M7.84766 35.8041C8.68668 36.4187 9.5257 37.0334 10.4696 37.5455C10.2598 36.8285 10.2598 36.1114 10.2598 35.1895C9.31595 35.4968 8.47692 35.8041 7.84766 35.8041Z" fill="white"/>
<path d="M0.191406 22.3845C0.296284 23.4089 0.50604 24.4333 0.82068 25.4577C1.24019 24.8431 1.76458 24.2284 2.39385 23.6138C1.44995 23.204 0.715802 22.7943 0.191406 22.3845Z" fill="white"/>
<path d="M30.9201 35.3943C30.9201 36.3162 30.8152 37.1357 30.6055 37.7504C31.5494 37.2382 32.3884 36.726 33.2274 36.0089C32.4933 35.9065 31.7591 35.7016 30.9201 35.3943Z" fill="white"/>
<path d="M36.6879 32.6281C37.3171 31.8086 37.9464 30.9891 38.4708 30.0671C37.7366 30.272 37.0025 30.272 36.0586 30.272C36.3732 31.194 36.6879 32.0135 36.6879 32.6281Z" fill="white"/>
<path d="M22.9492 40.1061C23.998 40.0036 25.0468 39.7987 26.0956 39.4914C25.4663 39.0817 24.837 38.5695 24.2078 37.9548C23.7882 38.8768 23.3687 39.5939 22.9492 40.1061Z" fill="white"/>
<path d="M14.9805 39.3889C16.0292 39.6962 16.9732 39.9011 18.0219 40.0035C17.6024 39.4913 17.1829 38.7742 16.8683 37.8523C16.239 38.5694 15.5049 39.0816 14.9805 39.3889Z" fill="white"/>
<path d="M4.59543 7.63257C3.86128 8.34964 3.33689 9.27159 2.8125 10.1935C3.44177 9.98867 4.28079 9.88623 5.2247 9.88623C4.91006 9.06672 4.7003 8.2472 4.59543 7.63257Z" fill="white"/>
<path d="M38.9961 16.7501C39.8351 17.1598 40.5693 17.4671 41.0937 17.8769C40.9888 16.8525 40.779 15.8281 40.4644 14.8037C40.1498 15.4183 39.6254 16.033 38.9961 16.7501Z" fill="white"/>
<path d="M40.3589 25.6619C40.6736 24.6375 40.8833 23.7156 40.9882 22.6912C40.4638 23.1009 39.7296 23.5107 38.8906 23.818C39.5199 24.4326 40.0443 25.1497 40.3589 25.6619Z" fill="white"/>
<path d="M38.6817 10.3986C38.1573 9.47667 37.6329 8.65716 37.0037 7.83765C36.8988 8.55472 36.689 9.27179 36.2695 10.0913C37.1086 10.1938 37.9476 10.2962 38.6817 10.3986Z" fill="white"/>
<path d="M10.6806 2.5105C9.73664 3.02269 8.89762 3.63733 8.05859 4.25196C8.79274 4.3544 9.52689 4.55928 10.3659 4.96903C10.4708 4.04708 10.5757 3.22757 10.6806 2.5105Z" fill="white"/>
<path d="M18.3338 0.155029C17.2851 0.257468 16.2363 0.462346 15.1875 0.769659C15.8168 1.17942 16.446 1.69161 17.0753 2.30624C17.4948 1.38429 17.9143 0.66722 18.3338 0.155029Z" fill="white"/>
<path d="M33.4384 4.45704C32.7042 3.73997 31.7603 3.22777 30.8164 2.71558C31.0262 3.33021 31.131 4.14972 31.131 5.07167C31.9701 4.76436 32.8091 4.55948 33.4384 4.45704Z" fill="white"/>
<path d="M26.3071 0.872201C25.2583 0.564884 24.3144 0.360007 23.2656 0.257568C23.6851 0.769762 24.1046 1.48684 24.4193 2.30635C25.0486 1.69171 25.7827 1.17952 26.3071 0.872201Z" fill="white"/>
<path d="M13.5117 26.8914V26.9938C13.5117 26.9938 13.6166 26.9938 13.5117 26.8914C13.6166 26.8914 13.6166 26.8914 13.5117 26.8914Z" fill="white"/>
<path d="M20.5391 29.7595C20.5391 29.7595 20.5391 29.862 20.6439 29.862C20.6439 29.862 20.6439 29.7595 20.7488 29.7595C20.5391 29.7595 20.5391 29.7595 20.5391 29.7595Z" fill="white"/>
<path d="M24.3125 29.1449C24.3125 29.1449 24.4174 29.1449 24.3125 29.1449C24.4174 29.1449 24.4174 29.1449 24.3125 29.1449C24.4174 29.0425 24.4174 29.1449 24.3125 29.1449Z" fill="white"/>
<path d="M18.5464 30.1697C18.022 30.5794 17.6025 30.8868 17.0781 31.2965C17.2879 32.3209 17.4976 33.3453 17.7074 34.2672C18.2318 33.5502 18.8611 32.7307 19.4903 31.7063C19.1757 31.1941 18.8611 30.6819 18.5464 30.1697Z" fill="white"/>
<path d="M27.5664 27.0961H27.6713C27.6713 27.0961 27.6713 26.9937 27.5664 27.0961C27.5664 26.9937 27.5664 26.9937 27.5664 27.0961Z" fill="white"/>
<path d="M29.872 12.7553C29.7672 13.3699 29.5574 13.8821 29.3477 14.4967C29.9769 14.5992 30.6062 14.7016 31.2355 14.7016C31.8647 13.7796 32.494 12.9601 33.0184 12.1406C32.0745 12.3455 31.0257 12.5504 29.872 12.7553Z" fill="white"/>
<path d="M22.9512 3.84226C22.1121 1.28128 21.1682 0.564209 20.7487 0.564209C20.6438 0.564209 20.6438 0.564209 20.539 0.564209C20.1195 0.769087 19.2804 1.5886 18.4414 3.73982C19.1756 4.66177 19.9097 5.58372 20.6438 6.71055C21.4829 5.68616 22.217 4.66177 22.9512 3.84226Z" fill="white"/>
<path d="M34.0653 10.1947C35.2189 7.8386 35.114 6.71177 34.9043 6.40446C34.4848 5.9947 33.436 6.09714 31.8628 6.81421C31.6531 6.91665 31.3384 7.01909 31.0238 7.22397C30.9189 8.3508 30.7092 9.58007 30.3945 10.8094C31.6531 10.5021 32.9116 10.2972 34.0653 10.1947Z" fill="white"/>
<path d="M27.774 13.3698V13.2673C27.774 13.2673 27.6691 13.2673 27.774 13.3698C27.6691 13.3698 27.6691 13.3698 27.774 13.3698Z" fill="white"/>
<path d="M32.0755 16.7507C31.7609 17.2629 31.3414 17.6727 30.9219 18.1849C31.4463 18.4922 31.9707 18.7995 32.495 19.1068C33.4389 18.4922 34.3828 17.98 35.117 17.3654C34.1731 17.1605 33.1243 16.9556 32.0755 16.7507Z" fill="white"/>
<path d="M31.9701 23.6137C33.0188 23.4088 34.0676 23.2039 35.0115 22.999C34.2774 22.4868 33.4384 21.8722 32.3896 21.2576C31.8652 21.5649 31.3408 21.8722 30.8164 22.1795C31.2359 22.6917 31.6554 23.2039 31.9701 23.6137Z" fill="white"/>
<path d="M30.5 20.233C30.5 20.233 30.6049 20.233 30.6049 20.1305C30.6049 20.1305 30.5 20.1305 30.5 20.0281C30.5 20.233 30.6049 20.233 30.5 20.233Z" fill="white"/>
<path d="M31.13 25.6619C30.5007 25.7643 29.8715 25.8667 29.2422 25.8667C29.4519 26.4814 29.5568 27.096 29.6617 27.6082C30.8154 27.9155 31.7593 28.018 32.7032 28.2228C32.3885 27.4033 31.7593 26.5838 31.13 25.6619Z" fill="white"/>
<path d="M11.4141 23.7156C11.4141 23.7156 11.4141 23.818 11.4141 23.7156C11.4141 23.818 11.4141 23.818 11.4141 23.7156C11.5189 23.818 11.4141 23.818 11.4141 23.7156Z" fill="white"/>
<path d="M26.3047 9.88694C26.4096 10.5016 26.5144 11.1162 26.5144 11.7308C27.1437 11.526 27.773 11.4235 28.2974 11.3211C28.612 10.1943 28.7169 9.16985 28.9266 8.35034C28.0876 8.65766 27.2486 9.27229 26.3047 9.88694Z" fill="white"/>
<path d="M11.4119 27.5057C11.5168 26.891 11.7266 26.3788 11.9363 25.7642C11.3071 25.6618 10.6778 25.5593 10.0486 25.5593C9.41928 26.4813 8.79002 27.3008 8.26562 28.1203C9.20953 27.9154 10.2583 27.7105 11.4119 27.5057Z" fill="white"/>
<path d="M10.1546 14.5991C10.7839 14.4966 11.4132 14.3942 12.0424 14.3942C11.8327 13.7795 11.7278 13.1649 11.5181 12.6527C10.3644 12.3454 9.31559 12.243 8.47656 12.0381C8.89607 12.8576 9.52534 13.6771 10.1546 14.5991Z" fill="white"/>
<path d="M10.7846 20.0281C10.7846 20.0281 10.6797 20.0281 10.6797 20.1305C10.6797 20.1305 10.7846 20.1305 10.7846 20.233C10.7846 20.0281 10.6797 20.0281 10.7846 20.0281Z" fill="white"/>
<path d="M9.20943 23.5111C9.52407 22.9989 9.94358 22.5892 10.3631 22.077C9.8387 21.7697 9.31431 21.4623 8.78992 21.155C7.84602 21.7697 6.90212 22.2819 6.16797 22.8965C7.11187 23.1014 8.16065 23.3063 9.20943 23.5111Z" fill="white"/>
<path d="M13.7221 13.1648H13.6172C13.6172 13.1648 13.6172 13.2672 13.7221 13.1648C13.7221 13.2672 13.7221 13.2672 13.7221 13.1648Z" fill="white"/>
<path d="M10.3631 18.0823C9.94358 17.5701 9.62894 17.0579 9.20943 16.6482C8.05577 16.8531 7.00699 17.0579 6.16797 17.2628C6.90212 17.775 7.74114 18.3897 8.78992 19.0043C9.31431 18.697 9.8387 18.3897 10.3631 18.0823Z" fill="white"/>
<path d="M14.8731 11.6281C14.978 11.0135 15.0829 10.3988 15.0829 9.7842C14.139 9.16955 13.3 8.55492 12.4609 8.04272C12.5658 8.96468 12.7756 9.98908 12.9853 11.0135C13.7195 11.2183 14.2439 11.4232 14.8731 11.6281Z" fill="white"/>
<path d="M22.7408 10.0915C23.2652 9.6817 23.6847 9.37438 24.2091 8.96463C23.9993 7.94024 23.7896 6.91585 23.5798 5.9939C23.0554 6.71097 22.4261 7.53048 21.7969 8.55487C22.1115 9.06707 22.4261 9.57926 22.7408 10.0915Z" fill="white"/>
<path d="M20.7488 10.5016C20.7488 10.5016 20.7488 10.3992 20.6439 10.3992C20.6439 10.3992 20.6439 10.5016 20.5391 10.5016C20.7488 10.5016 20.7488 10.3992 20.7488 10.5016Z" fill="white"/>
<path d="M17.1797 8.96463C17.7041 9.27194 18.1236 9.6817 18.648 10.0915C18.9626 9.57926 19.2772 9.06707 19.5919 8.55487C18.9626 7.63292 18.4382 6.71097 17.809 5.9939C17.5992 6.91585 17.3894 7.94024 17.1797 8.96463Z" fill="white"/>
<path d="M13.0902 1.99875C12.5658 2.20362 12.2512 3.53533 12.356 5.78899C12.6707 5.99387 13.0902 6.19875 13.5097 6.40362C14.139 6.81338 14.8731 7.22314 15.6073 7.73533C15.817 6.91582 15.9219 6.09631 16.1316 5.37923C16.2365 4.96948 16.3414 4.55972 16.4463 4.14997C14.8731 2.51094 13.7194 1.79387 13.0902 1.99875Z" fill="white"/>
<path d="M14.7677 28.6326C14.1384 28.8374 13.5091 28.9399 12.9847 29.0423C12.6701 30.1692 12.5652 31.0911 12.3555 32.0131C13.1945 31.5009 14.0335 30.9887 14.9774 30.374C14.8725 29.7594 14.8725 29.2472 14.7677 28.6326Z" fill="white"/>
<path d="M6.16876 11.7306C4.59559 11.6281 3.44193 11.7306 2.81267 12.0379C2.49803 12.1403 2.28827 12.3452 2.1834 12.5501C1.97364 13.0623 2.70779 14.2915 4.38584 15.8281C5.53949 15.5208 6.69315 15.2135 8.05657 15.0086C7.32242 13.8818 6.69315 12.7549 6.16876 11.7306Z" fill="white"/>
<path d="M25.1523 4.25275C25.2572 4.6625 25.3621 5.07226 25.467 5.48202C25.6767 6.19909 25.7816 7.0186 25.9914 7.83811C27.145 7.12104 28.1938 6.50641 29.2426 5.99421C29.3475 3.74055 29.0328 2.40885 28.4036 2.10153C27.8792 1.89665 26.7255 2.61372 25.1523 4.25275Z" fill="white"/>
<path d="M18.3359 36.4188C19.175 38.9798 20.1189 39.6969 20.5384 39.6969C20.9579 39.6969 21.9018 38.9798 22.7408 36.5213C22.0067 35.5993 21.2725 34.6774 20.5384 33.5505C19.8042 34.5749 19.0701 35.5993 18.3359 36.4188Z" fill="white"/>
<path d="M34.6954 13.0623C34.2759 13.6769 33.8564 14.394 33.332 15.1111C34.1711 15.316 35.0101 15.4184 35.7442 15.6233C36.1637 15.7257 36.5833 15.8282 37.0028 15.9306C38.6808 14.394 39.415 13.2672 39.2052 12.755C38.9954 12.2428 37.632 11.833 35.3247 11.9355C35.115 12.3452 34.9052 12.755 34.6954 13.0623Z" fill="white"/>
<path d="M16.9732 11.116C16.9732 11.116 16.8683 11.116 16.9732 11.116C16.8683 11.116 16.8683 11.116 16.9732 11.116C16.8683 11.2184 16.8683 11.116 16.9732 11.116Z" fill="white"/>
<path d="M25.7804 32.5261C25.5707 33.3456 25.4658 34.1651 25.256 34.8822C25.1512 35.292 25.0463 35.7017 24.9414 36.1115C26.5146 37.7505 27.6682 38.4676 28.1926 38.2627C28.717 38.0578 29.1365 36.7261 29.0317 34.4725C28.717 34.2676 28.2975 34.0627 27.878 33.8578C27.1438 33.4481 26.5146 32.9359 25.7804 32.5261Z" fill="white"/>
<path d="M11.5189 16.3406H11.4141L11.5189 16.443C11.5189 16.3406 11.5189 16.3406 11.5189 16.3406Z" fill="white"/>
<path d="M37.3194 22.3842C39.9413 21.5647 40.6755 20.6428 40.6755 20.233C40.6755 19.8233 39.9413 18.9013 37.4243 18.0818C36.4804 18.7989 35.5365 19.5159 34.3828 20.233C35.4316 20.9501 36.4804 21.6672 37.3194 22.3842Z" fill="white"/>
<path d="M30.8174 33.2423C33.2296 34.3692 34.3832 34.2667 34.6978 34.0619C35.0125 33.7545 35.1174 32.6277 33.9637 30.2716C32.81 30.1692 31.5515 29.9643 30.293 29.657C30.5027 30.8863 30.7125 32.1155 30.8174 33.2423Z" fill="white"/>
<path d="M24.5228 11.2184V11.116L24.418 11.2184C24.5228 11.2184 24.5228 11.2184 24.5228 11.2184Z" fill="white"/>
<path d="M16.1338 36.0089C16.0289 35.5992 15.924 35.1894 15.8191 34.7797C15.6094 34.0626 15.5045 33.2431 15.2948 32.4236C14.5606 32.9358 13.8265 33.3455 13.1972 33.7553C12.7777 33.9602 12.463 34.165 12.0435 34.3699C11.9387 36.6236 12.2533 37.9553 12.7777 38.1602C13.4069 38.365 14.5606 37.648 16.1338 36.0089Z" fill="white"/>
<path d="M7.21739 30.0676C6.06373 32.4237 6.16861 33.5505 6.37837 33.8579C6.58812 34.1652 7.84666 34.2676 10.2588 33.1408C10.3637 32.014 10.5735 30.7847 10.8881 29.5554C9.62959 29.7603 8.37105 29.9652 7.21739 30.0676Z" fill="white"/>
<path d="M6.58768 27.1991C7.0072 26.5845 7.42671 25.8674 7.9511 25.1503C7.11207 24.9454 6.27305 24.843 5.5389 24.6381C5.11939 24.5357 4.69988 24.4332 4.28037 24.3308C2.60232 25.8674 1.86817 26.9942 2.07793 27.5064C2.28768 28.0186 3.6511 28.3259 5.95842 28.2235C6.16817 27.9162 6.37793 27.5064 6.58768 27.1991Z" fill="white"/>
<path d="M33.2266 25.3544C33.751 26.0715 34.1705 26.7886 34.59 27.4032C34.7997 27.813 35.0095 28.1203 35.2192 28.53C37.5266 28.6325 38.89 28.3252 39.0997 27.813C39.3095 27.3008 38.5753 26.0715 36.8973 24.5349C36.4778 24.6374 36.0583 24.7398 35.6388 24.8422C34.9046 25.0471 34.0656 25.1495 33.2266 25.3544Z" fill="white"/>
<path d="M3.96547 17.8767C3.65084 17.9791 3.33621 18.0816 3.12645 18.184C1.4484 18.7987 0.609375 19.5157 0.609375 20.0279C0.609375 20.4377 1.34352 21.3596 3.8606 22.1791C4.8045 21.4621 5.7484 20.745 6.90206 20.0279C5.85328 19.3109 4.8045 18.5938 3.96547 17.8767Z" fill="white"/>
<path d="M10.4688 7.01873C8.37117 5.99434 7.21752 5.99434 6.69313 6.09678C6.58825 6.09678 6.58825 6.19922 6.48337 6.19922C6.06386 6.60897 6.27361 7.94068 7.21752 9.98948C8.37117 10.0919 9.62971 10.2968 10.8883 10.6041C10.7834 9.37483 10.5736 8.14556 10.4688 7.01873Z" fill="white"/>
<path d="M22.6353 30.1694C22.3207 30.6816 22.006 31.1938 21.6914 31.706C22.3207 32.628 22.8451 33.5499 23.4743 34.267C23.6841 33.345 23.8938 32.3207 24.1036 31.2963C23.5792 30.8865 23.0548 30.5792 22.6353 30.1694Z" fill="white"/>
<path d="M26.4129 28.6326C26.308 29.2472 26.2031 29.8618 26.2031 30.4765C27.147 31.0911 27.9861 31.7057 28.8251 32.2179C28.7202 31.296 28.5104 30.2716 28.3007 29.2472C27.5665 29.0423 27.0421 28.8374 26.4129 28.6326Z" fill="white"/>
<path d="M29.7656 16.4431C29.7656 16.4431 29.8705 16.4431 29.7656 16.4431C29.8705 16.5456 29.8705 16.5456 29.7656 16.4431C29.8705 16.5456 29.8705 16.4431 29.8705 16.4431C29.8705 16.4431 29.8705 16.4431 29.7656 16.4431Z" fill="white"/>
<path d="M0.92614 14.5994C0.611509 15.6238 0.401753 16.6481 0.296875 17.6725C0.92614 17.2628 1.66029 16.853 2.49931 16.5457C1.76516 15.8286 1.24077 15.1116 0.92614 14.5994Z" fill="url(#paint0_linear_975_11763)"/>
<path d="M2.60547 29.8621C3.12986 30.784 3.65425 31.6035 4.28352 32.423C4.3884 31.706 4.59815 30.9889 5.01766 30.1694C4.17864 30.0669 3.33962 29.9645 2.60547 29.8621Z" fill="url(#paint1_linear_975_11763)"/>
<path d="M7.84766 35.8041C8.68668 36.4187 9.5257 37.0334 10.4696 37.5455C10.2598 36.8285 10.2598 36.1114 10.2598 35.1895C9.31595 35.4968 8.47692 35.8041 7.84766 35.8041Z" fill="url(#paint2_linear_975_11763)"/>
<path d="M0.191406 22.3845C0.296284 23.4089 0.50604 24.4333 0.82068 25.4577C1.24019 24.8431 1.76458 24.2284 2.39385 23.6138C1.44995 23.204 0.715802 22.7943 0.191406 22.3845Z" fill="url(#paint3_linear_975_11763)"/>
<path d="M30.9201 35.3943C30.9201 36.3162 30.8152 37.1357 30.6055 37.7504C31.5494 37.2382 32.3884 36.726 33.2274 36.0089C32.4933 35.9065 31.7591 35.7016 30.9201 35.3943Z" fill="url(#paint4_linear_975_11763)"/>
<path d="M36.6879 32.6281C37.3171 31.8086 37.9464 30.9891 38.4708 30.0671C37.7366 30.272 37.0025 30.272 36.0586 30.272C36.3732 31.194 36.6879 32.0135 36.6879 32.6281Z" fill="url(#paint5_linear_975_11763)"/>
<path d="M22.9492 40.1061C23.998 40.0036 25.0468 39.7987 26.0956 39.4914C25.4663 39.0817 24.837 38.5695 24.2078 37.9548C23.7882 38.8768 23.3687 39.5939 22.9492 40.1061Z" fill="url(#paint6_linear_975_11763)"/>
<path d="M14.9805 39.3889C16.0292 39.6962 16.9732 39.9011 18.0219 40.0035C17.6024 39.4913 17.1829 38.7742 16.8683 37.8523C16.239 38.5694 15.5049 39.0816 14.9805 39.3889Z" fill="url(#paint7_linear_975_11763)"/>
<path d="M4.59543 7.63257C3.86128 8.34964 3.33689 9.27159 2.8125 10.1935C3.44177 9.98867 4.28079 9.88623 5.2247 9.88623C4.91006 9.06672 4.7003 8.2472 4.59543 7.63257Z" fill="url(#paint8_linear_975_11763)"/>
<path d="M38.9961 16.7501C39.8351 17.1598 40.5693 17.4671 41.0937 17.8769C40.9888 16.8525 40.779 15.8281 40.4644 14.8037C40.1498 15.4183 39.6254 16.033 38.9961 16.7501Z" fill="url(#paint9_linear_975_11763)"/>
<path d="M40.3589 25.6619C40.6736 24.6375 40.8833 23.7156 40.9882 22.6912C40.4638 23.1009 39.7296 23.5107 38.8906 23.818C39.5199 24.4326 40.0443 25.1497 40.3589 25.6619Z" fill="url(#paint10_linear_975_11763)"/>
<path d="M38.6817 10.3986C38.1573 9.47667 37.6329 8.65716 37.0037 7.83765C36.8988 8.55472 36.689 9.27179 36.2695 10.0913C37.1086 10.1938 37.9476 10.2962 38.6817 10.3986Z" fill="url(#paint11_linear_975_11763)"/>
<path d="M10.6806 2.5105C9.73664 3.02269 8.89762 3.63733 8.05859 4.25196C8.79274 4.3544 9.52689 4.55928 10.3659 4.96903C10.4708 4.04708 10.5757 3.22757 10.6806 2.5105Z" fill="url(#paint12_linear_975_11763)"/>
<path d="M18.3338 0.155029C17.2851 0.257468 16.2363 0.462346 15.1875 0.769659C15.8168 1.17942 16.446 1.69161 17.0753 2.30624C17.4948 1.38429 17.9143 0.66722 18.3338 0.155029Z" fill="url(#paint13_linear_975_11763)"/>
<path d="M33.4384 4.45704C32.7042 3.73997 31.7603 3.22777 30.8164 2.71558C31.0262 3.33021 31.131 4.14972 31.131 5.07167C31.9701 4.76436 32.8091 4.55948 33.4384 4.45704Z" fill="url(#paint14_linear_975_11763)"/>
<path d="M26.3071 0.872201C25.2583 0.564884 24.3144 0.360007 23.2656 0.257568C23.6851 0.769762 24.1046 1.48684 24.4193 2.30635C25.0486 1.69171 25.7827 1.17952 26.3071 0.872201Z" fill="url(#paint15_linear_975_11763)"/>
<path d="M13.5117 26.8914V26.9938C13.5117 26.9938 13.6166 26.9938 13.5117 26.8914C13.6166 26.8914 13.6166 26.8914 13.5117 26.8914Z" fill="url(#paint16_linear_975_11763)"/>
<path d="M20.5391 29.7595C20.5391 29.7595 20.5391 29.862 20.6439 29.862C20.6439 29.862 20.6439 29.7595 20.7488 29.7595C20.5391 29.7595 20.5391 29.7595 20.5391 29.7595Z" fill="url(#paint17_linear_975_11763)"/>
<path d="M24.3125 29.1449C24.3125 29.1449 24.4174 29.1449 24.3125 29.1449C24.4174 29.1449 24.4174 29.1449 24.3125 29.1449C24.4174 29.0425 24.4174 29.1449 24.3125 29.1449Z" fill="url(#paint18_linear_975_11763)"/>
<path d="M18.5464 30.1697C18.022 30.5794 17.6025 30.8868 17.0781 31.2965C17.2879 32.3209 17.4976 33.3453 17.7074 34.2672C18.2318 33.5502 18.8611 32.7307 19.4903 31.7063C19.1757 31.1941 18.8611 30.6819 18.5464 30.1697Z" fill="url(#paint19_linear_975_11763)"/>
<path d="M27.5664 27.0961H27.6713C27.6713 27.0961 27.6713 26.9937 27.5664 27.0961C27.5664 26.9937 27.5664 26.9937 27.5664 27.0961Z" fill="url(#paint20_linear_975_11763)"/>
<path d="M29.872 12.7553C29.7672 13.3699 29.5574 13.8821 29.3477 14.4967C29.9769 14.5992 30.6062 14.7016 31.2355 14.7016C31.8647 13.7796 32.494 12.9601 33.0184 12.1406C32.0745 12.3455 31.0257 12.5504 29.872 12.7553Z" fill="url(#paint21_linear_975_11763)"/>
<path d="M22.9512 3.84226C22.1121 1.28128 21.1682 0.564209 20.7487 0.564209C20.6438 0.564209 20.6438 0.564209 20.539 0.564209C20.1195 0.769087 19.2804 1.5886 18.4414 3.73982C19.1756 4.66177 19.9097 5.58372 20.6438 6.71055C21.4829 5.68616 22.217 4.66177 22.9512 3.84226Z" fill="url(#paint22_linear_975_11763)"/>
<path d="M34.0653 10.1947C35.2189 7.8386 35.114 6.71177 34.9043 6.40446C34.4848 5.9947 33.436 6.09714 31.8628 6.81421C31.6531 6.91665 31.3384 7.01909 31.0238 7.22397C30.9189 8.3508 30.7092 9.58007 30.3945 10.8094C31.6531 10.5021 32.9116 10.2972 34.0653 10.1947Z" fill="url(#paint23_linear_975_11763)"/>
<path d="M27.774 13.3698V13.2673C27.774 13.2673 27.6691 13.2673 27.774 13.3698C27.6691 13.3698 27.6691 13.3698 27.774 13.3698Z" fill="url(#paint24_linear_975_11763)"/>
<path d="M32.0755 16.7507C31.7609 17.2629 31.3414 17.6727 30.9219 18.1849C31.4463 18.4922 31.9707 18.7995 32.495 19.1068C33.4389 18.4922 34.3828 17.98 35.117 17.3654C34.1731 17.1605 33.1243 16.9556 32.0755 16.7507Z" fill="url(#paint25_linear_975_11763)"/>
<path d="M31.9701 23.6137C33.0188 23.4088 34.0676 23.2039 35.0115 22.999C34.2774 22.4868 33.4384 21.8722 32.3896 21.2576C31.8652 21.5649 31.3408 21.8722 30.8164 22.1795C31.2359 22.6917 31.6554 23.2039 31.9701 23.6137Z" fill="url(#paint26_linear_975_11763)"/>
<path d="M30.5 20.233C30.5 20.233 30.6049 20.233 30.6049 20.1305C30.6049 20.1305 30.5 20.1305 30.5 20.0281C30.5 20.233 30.6049 20.233 30.5 20.233Z" fill="url(#paint27_linear_975_11763)"/>
<path d="M31.13 25.6619C30.5007 25.7643 29.8715 25.8667 29.2422 25.8667C29.4519 26.4814 29.5568 27.096 29.6617 27.6082C30.8154 27.9155 31.7593 28.018 32.7032 28.2228C32.3885 27.4033 31.7593 26.5838 31.13 25.6619Z" fill="url(#paint28_linear_975_11763)"/>
<path d="M11.4141 23.7156C11.4141 23.7156 11.4141 23.818 11.4141 23.7156C11.4141 23.818 11.4141 23.818 11.4141 23.7156C11.5189 23.818 11.4141 23.818 11.4141 23.7156Z" fill="url(#paint29_linear_975_11763)"/>
<path d="M26.3047 9.88694C26.4096 10.5016 26.5144 11.1162 26.5144 11.7308C27.1437 11.526 27.773 11.4235 28.2974 11.3211C28.612 10.1943 28.7169 9.16985 28.9266 8.35034C28.0876 8.65766 27.2486 9.27229 26.3047 9.88694Z" fill="url(#paint30_linear_975_11763)"/>
<path d="M11.4119 27.5057C11.5168 26.891 11.7266 26.3788 11.9363 25.7642C11.3071 25.6618 10.6778 25.5593 10.0486 25.5593C9.41928 26.4813 8.79002 27.3008 8.26562 28.1203C9.20953 27.9154 10.2583 27.7105 11.4119 27.5057Z" fill="url(#paint31_linear_975_11763)"/>
<path d="M10.1546 14.5991C10.7839 14.4966 11.4132 14.3942 12.0424 14.3942C11.8327 13.7795 11.7278 13.1649 11.5181 12.6527C10.3644 12.3454 9.31559 12.243 8.47656 12.0381C8.89607 12.8576 9.52534 13.6771 10.1546 14.5991Z" fill="url(#paint32_linear_975_11763)"/>
<path d="M10.7846 20.0281C10.7846 20.0281 10.6797 20.0281 10.6797 20.1305C10.6797 20.1305 10.7846 20.1305 10.7846 20.233C10.7846 20.0281 10.6797 20.0281 10.7846 20.0281Z" fill="url(#paint33_linear_975_11763)"/>
<path d="M9.20943 23.5111C9.52407 22.9989 9.94358 22.5892 10.3631 22.077C9.8387 21.7697 9.31431 21.4623 8.78992 21.155C7.84602 21.7697 6.90212 22.2819 6.16797 22.8965C7.11187 23.1014 8.16065 23.3063 9.20943 23.5111Z" fill="url(#paint34_linear_975_11763)"/>
<path d="M13.7221 13.1648H13.6172C13.6172 13.1648 13.6172 13.2672 13.7221 13.1648C13.7221 13.2672 13.7221 13.2672 13.7221 13.1648Z" fill="url(#paint35_linear_975_11763)"/>
<path d="M10.3631 18.0823C9.94358 17.5701 9.62894 17.0579 9.20943 16.6482C8.05577 16.8531 7.00699 17.0579 6.16797 17.2628C6.90212 17.775 7.74114 18.3897 8.78992 19.0043C9.31431 18.697 9.8387 18.3897 10.3631 18.0823Z" fill="url(#paint36_linear_975_11763)"/>
<path d="M14.8731 11.6281C14.978 11.0135 15.0829 10.3988 15.0829 9.7842C14.139 9.16955 13.3 8.55492 12.4609 8.04272C12.5658 8.96468 12.7756 9.98908 12.9853 11.0135C13.7195 11.2183 14.2439 11.4232 14.8731 11.6281Z" fill="url(#paint37_linear_975_11763)"/>
<path d="M22.7408 10.0915C23.2652 9.6817 23.6847 9.37438 24.2091 8.96463C23.9993 7.94024 23.7896 6.91585 23.5798 5.9939C23.0554 6.71097 22.4261 7.53048 21.7969 8.55487C22.1115 9.06707 22.4261 9.57926 22.7408 10.0915Z" fill="url(#paint38_linear_975_11763)"/>
<path d="M20.7488 10.5016C20.7488 10.5016 20.7488 10.3992 20.6439 10.3992C20.6439 10.3992 20.6439 10.5016 20.5391 10.5016C20.7488 10.5016 20.7488 10.3992 20.7488 10.5016Z" fill="url(#paint39_linear_975_11763)"/>
<path d="M17.1797 8.96463C17.7041 9.27194 18.1236 9.6817 18.648 10.0915C18.9626 9.57926 19.2772 9.06707 19.5919 8.55487C18.9626 7.63292 18.4382 6.71097 17.809 5.9939C17.5992 6.91585 17.3894 7.94024 17.1797 8.96463Z" fill="url(#paint40_linear_975_11763)"/>
<path d="M13.0902 1.99875C12.5658 2.20362 12.2512 3.53533 12.356 5.78899C12.6707 5.99387 13.0902 6.19875 13.5097 6.40362C14.139 6.81338 14.8731 7.22314 15.6073 7.73533C15.817 6.91582 15.9219 6.09631 16.1316 5.37923C16.2365 4.96948 16.3414 4.55972 16.4463 4.14997C14.8731 2.51094 13.7194 1.79387 13.0902 1.99875Z" fill="url(#paint41_linear_975_11763)"/>
<path d="M14.7677 28.6326C14.1384 28.8374 13.5091 28.9399 12.9847 29.0423C12.6701 30.1692 12.5652 31.0911 12.3555 32.0131C13.1945 31.5009 14.0335 30.9887 14.9774 30.374C14.8725 29.7594 14.8725 29.2472 14.7677 28.6326Z" fill="url(#paint42_linear_975_11763)"/>
<path d="M6.16876 11.7306C4.59559 11.6281 3.44193 11.7306 2.81267 12.0379C2.49803 12.1403 2.28827 12.3452 2.1834 12.5501C1.97364 13.0623 2.70779 14.2915 4.38584 15.8281C5.53949 15.5208 6.69315 15.2135 8.05657 15.0086C7.32242 13.8818 6.69315 12.7549 6.16876 11.7306Z" fill="url(#paint43_linear_975_11763)"/>
<path d="M25.1523 4.25275C25.2572 4.6625 25.3621 5.07226 25.467 5.48202C25.6767 6.19909 25.7816 7.0186 25.9914 7.83811C27.145 7.12104 28.1938 6.50641 29.2426 5.99421C29.3475 3.74055 29.0328 2.40885 28.4036 2.10153C27.8792 1.89665 26.7255 2.61372 25.1523 4.25275Z" fill="url(#paint44_linear_975_11763)"/>
<path d="M18.3359 36.4188C19.175 38.9798 20.1189 39.6969 20.5384 39.6969C20.9579 39.6969 21.9018 38.9798 22.7408 36.5213C22.0067 35.5993 21.2725 34.6774 20.5384 33.5505C19.8042 34.5749 19.0701 35.5993 18.3359 36.4188Z" fill="url(#paint45_linear_975_11763)"/>
<path d="M34.6954 13.0623C34.2759 13.6769 33.8564 14.394 33.332 15.1111C34.1711 15.316 35.0101 15.4184 35.7442 15.6233C36.1637 15.7257 36.5833 15.8282 37.0028 15.9306C38.6808 14.394 39.415 13.2672 39.2052 12.755C38.9954 12.2428 37.632 11.833 35.3247 11.9355C35.115 12.3452 34.9052 12.755 34.6954 13.0623Z" fill="url(#paint46_linear_975_11763)"/>
<path d="M16.9732 11.116C16.9732 11.116 16.8683 11.116 16.9732 11.116C16.8683 11.116 16.8683 11.116 16.9732 11.116C16.8683 11.2184 16.8683 11.116 16.9732 11.116Z" fill="url(#paint47_linear_975_11763)"/>
<path d="M25.7804 32.5261C25.5707 33.3456 25.4658 34.1651 25.256 34.8822C25.1512 35.292 25.0463 35.7017 24.9414 36.1115C26.5146 37.7505 27.6682 38.4676 28.1926 38.2627C28.717 38.0578 29.1365 36.7261 29.0317 34.4725C28.717 34.2676 28.2975 34.0627 27.878 33.8578C27.1438 33.4481 26.5146 32.9359 25.7804 32.5261Z" fill="url(#paint48_linear_975_11763)"/>
<path d="M11.5189 16.3406H11.4141L11.5189 16.443C11.5189 16.3406 11.5189 16.3406 11.5189 16.3406Z" fill="url(#paint49_linear_975_11763)"/>
<path d="M37.3194 22.3842C39.9413 21.5647 40.6755 20.6428 40.6755 20.233C40.6755 19.8233 39.9413 18.9013 37.4243 18.0818C36.4804 18.7989 35.5365 19.5159 34.3828 20.233C35.4316 20.9501 36.4804 21.6672 37.3194 22.3842Z" fill="url(#paint50_linear_975_11763)"/>
<path d="M30.8174 33.2423C33.2296 34.3692 34.3832 34.2667 34.6978 34.0619C35.0125 33.7545 35.1174 32.6277 33.9637 30.2716C32.81 30.1692 31.5515 29.9643 30.293 29.657C30.5027 30.8863 30.7125 32.1155 30.8174 33.2423Z" fill="url(#paint51_linear_975_11763)"/>
<path d="M24.5228 11.2184V11.116L24.418 11.2184C24.5228 11.2184 24.5228 11.2184 24.5228 11.2184Z" fill="url(#paint52_linear_975_11763)"/>
<path d="M16.1338 36.0089C16.0289 35.5992 15.924 35.1894 15.8191 34.7797C15.6094 34.0626 15.5045 33.2431 15.2948 32.4236C14.5606 32.9358 13.8265 33.3455 13.1972 33.7553C12.7777 33.9602 12.463 34.165 12.0435 34.3699C11.9387 36.6236 12.2533 37.9553 12.7777 38.1602C13.4069 38.365 14.5606 37.648 16.1338 36.0089Z" fill="url(#paint53_linear_975_11763)"/>
<path d="M7.21739 30.0676C6.06373 32.4237 6.16861 33.5505 6.37837 33.8579C6.58812 34.1652 7.84666 34.2676 10.2588 33.1408C10.3637 32.014 10.5735 30.7847 10.8881 29.5554C9.62959 29.7603 8.37105 29.9652 7.21739 30.0676Z" fill="url(#paint54_linear_975_11763)"/>
<path d="M6.58768 27.1991C7.0072 26.5845 7.42671 25.8674 7.9511 25.1503C7.11207 24.9454 6.27305 24.843 5.5389 24.6381C5.11939 24.5357 4.69988 24.4332 4.28037 24.3308C2.60232 25.8674 1.86817 26.9942 2.07793 27.5064C2.28768 28.0186 3.6511 28.3259 5.95842 28.2235C6.16817 27.9162 6.37793 27.5064 6.58768 27.1991Z" fill="url(#paint55_linear_975_11763)"/>
<path d="M33.2266 25.3544C33.751 26.0715 34.1705 26.7886 34.59 27.4032C34.7997 27.813 35.0095 28.1203 35.2192 28.53C37.5266 28.6325 38.89 28.3252 39.0997 27.813C39.3095 27.3008 38.5753 26.0715 36.8973 24.5349C36.4778 24.6374 36.0583 24.7398 35.6388 24.8422C34.9046 25.0471 34.0656 25.1495 33.2266 25.3544Z" fill="url(#paint56_linear_975_11763)"/>
<path d="M3.96547 17.8767C3.65084 17.9791 3.33621 18.0816 3.12645 18.184C1.4484 18.7987 0.609375 19.5157 0.609375 20.0279C0.609375 20.4377 1.34352 21.3596 3.8606 22.1791C4.8045 21.4621 5.7484 20.745 6.90206 20.0279C5.85328 19.3109 4.8045 18.5938 3.96547 17.8767Z" fill="url(#paint57_linear_975_11763)"/>
<path d="M10.4688 7.01873C8.37117 5.99434 7.21752 5.99434 6.69313 6.09678C6.58825 6.09678 6.58825 6.19922 6.48337 6.19922C6.06386 6.60897 6.27361 7.94068 7.21752 9.98948C8.37117 10.0919 9.62971 10.2968 10.8883 10.6041C10.7834 9.37483 10.5736 8.14556 10.4688 7.01873Z" fill="url(#paint58_linear_975_11763)"/>
<path d="M22.6353 30.1694C22.3207 30.6816 22.006 31.1938 21.6914 31.706C22.3207 32.628 22.8451 33.5499 23.4743 34.267C23.6841 33.345 23.8938 32.3207 24.1036 31.2963C23.5792 30.8865 23.0548 30.5792 22.6353 30.1694Z" fill="url(#paint59_linear_975_11763)"/>
<path d="M26.4129 28.6326C26.308 29.2472 26.2031 29.8618 26.2031 30.4765C27.147 31.0911 27.9861 31.7057 28.8251 32.2179C28.7202 31.296 28.5104 30.2716 28.3007 29.2472C27.5665 29.0423 27.0421 28.8374 26.4129 28.6326Z" fill="url(#paint60_linear_975_11763)"/>
<path d="M29.7656 16.4431C29.7656 16.4431 29.8705 16.4431 29.7656 16.4431C29.8705 16.5456 29.8705 16.5456 29.7656 16.4431C29.8705 16.5456 29.8705 16.4431 29.8705 16.4431C29.8705 16.4431 29.8705 16.4431 29.7656 16.4431Z" fill="url(#paint61_linear_975_11763)"/>
<defs>
<linearGradient id="paint0_linear_975_11763" x1="0.276474" y1="17.3836" x2="40.9934" y2="23.2048" gradientUnits="userSpaceOnUse">
<stop stop-color="#FFB743"/>
<stop offset="0.2373" stop-color="#FF8E28"/>
<stop offset="0.4568" stop-color="#FD76B7"/>
<stop offset="0.6688" stop-color="#8170EA"/>
<stop offset="0.8551" stop-color="#7FD7F2"/>
<stop offset="1" stop-color="#7ADBD1"/>
</linearGradient>
<linearGradient id="paint1_linear_975_11763" x1="0.277756" y1="17.3828" x2="40.9946" y2="23.2041" gradientUnits="userSpaceOnUse">
<stop stop-color="#FFB743"/>
<stop offset="0.2373" stop-color="#FF8E28"/>
<stop offset="0.4568" stop-color="#FD76B7"/>
<stop offset="0.6688" stop-color="#8170EA"/>
<stop offset="0.8551" stop-color="#7FD7F2"/>
<stop offset="1" stop-color="#7ADBD1"/>
</linearGradient>
<linearGradient id="paint2_linear_975_11763" x1="0.276041" y1="17.3834" x2="40.9929" y2="23.2046" gradientUnits="userSpaceOnUse">
<stop stop-color="#FFB743"/>
<stop offset="0.2373" stop-color="#FF8E28"/>
<stop offset="0.4568" stop-color="#FD76B7"/>
<stop offset="0.6688" stop-color="#8170EA"/>
<stop offset="0.8551" stop-color="#7FD7F2"/>
<stop offset="1" stop-color="#7ADBD1"/>
</linearGradient>
<linearGradient id="paint3_linear_975_11763" x1="0.275884" y1="17.3833" x2="40.9928" y2="23.2046" gradientUnits="userSpaceOnUse">
<stop stop-color="#FFB743"/>
<stop offset="0.2373" stop-color="#FF8E28"/>
<stop offset="0.4568" stop-color="#FD76B7"/>
<stop offset="0.6688" stop-color="#8170EA"/>
<stop offset="0.8551" stop-color="#7FD7F2"/>
<stop offset="1" stop-color="#7ADBD1"/>
</linearGradient>
<linearGradient id="paint4_linear_975_11763" x1="0.275276" y1="17.3834" x2="40.9922" y2="23.2046" gradientUnits="userSpaceOnUse">
<stop stop-color="#FFB743"/>
<stop offset="0.2373" stop-color="#FF8E28"/>
<stop offset="0.4568" stop-color="#FD76B7"/>
<stop offset="0.6688" stop-color="#8170EA"/>
<stop offset="0.8551" stop-color="#7FD7F2"/>
<stop offset="1" stop-color="#7ADBD1"/>
</linearGradient>
<linearGradient id="paint5_linear_975_11763" x1="0.27482" y1="17.383" x2="40.9917" y2="23.2043" gradientUnits="userSpaceOnUse">
<stop stop-color="#FFB743"/>
<stop offset="0.2373" stop-color="#FF8E28"/>
<stop offset="0.4568" stop-color="#FD76B7"/>
<stop offset="0.6688" stop-color="#8170EA"/>
<stop offset="0.8551" stop-color="#7FD7F2"/>
<stop offset="1" stop-color="#7ADBD1"/>
</linearGradient>
<linearGradient id="paint6_linear_975_11763" x1="0.275176" y1="17.3829" x2="40.992" y2="23.2042" gradientUnits="userSpaceOnUse">
<stop stop-color="#FFB743"/>
<stop offset="0.2373" stop-color="#FF8E28"/>
<stop offset="0.4568" stop-color="#FD76B7"/>
<stop offset="0.6688" stop-color="#8170EA"/>
<stop offset="0.8551" stop-color="#7FD7F2"/>
<stop offset="1" stop-color="#7ADBD1"/>
</linearGradient>
<linearGradient id="paint7_linear_975_11763" x1="0.277101" y1="17.3828" x2="40.994" y2="23.2039" gradientUnits="userSpaceOnUse">
<stop stop-color="#FFB743"/>
<stop offset="0.2373" stop-color="#FF8E28"/>
<stop offset="0.4568" stop-color="#FD76B7"/>
<stop offset="0.6688" stop-color="#8170EA"/>
<stop offset="0.8551" stop-color="#7FD7F2"/>
<stop offset="1" stop-color="#7ADBD1"/>
</linearGradient>
<linearGradient id="paint8_linear_975_11763" x1="0.275022" y1="17.3826" x2="40.9919" y2="23.2039" gradientUnits="userSpaceOnUse">
<stop stop-color="#FFB743"/>
<stop offset="0.2373" stop-color="#FF8E28"/>
<stop offset="0.4568" stop-color="#FD76B7"/>
<stop offset="0.6688" stop-color="#8170EA"/>
<stop offset="0.8551" stop-color="#7FD7F2"/>
<stop offset="1" stop-color="#7ADBD1"/>
</linearGradient>
<linearGradient id="paint9_linear_975_11763" x1="0.275656" y1="17.383" x2="40.9926" y2="23.2043" gradientUnits="userSpaceOnUse">
<stop stop-color="#FFB743"/>
<stop offset="0.2373" stop-color="#FF8E28"/>
<stop offset="0.4568" stop-color="#FD76B7"/>
<stop offset="0.6688" stop-color="#8170EA"/>
<stop offset="0.8551" stop-color="#7FD7F2"/>
<stop offset="1" stop-color="#7ADBD1"/>
</linearGradient>
<linearGradient id="paint10_linear_975_11763" x1="0.275069" y1="17.3827" x2="40.992" y2="23.2039" gradientUnits="userSpaceOnUse">
<stop stop-color="#FFB743"/>
<stop offset="0.2373" stop-color="#FF8E28"/>
<stop offset="0.4568" stop-color="#FD76B7"/>
<stop offset="0.6688" stop-color="#8170EA"/>
<stop offset="0.8551" stop-color="#7FD7F2"/>
<stop offset="1" stop-color="#7ADBD1"/>
</linearGradient>
<linearGradient id="paint11_linear_975_11763" x1="0.275891" y1="17.3828" x2="40.9928" y2="23.2041" gradientUnits="userSpaceOnUse">
<stop stop-color="#FFB743"/>
<stop offset="0.2373" stop-color="#FF8E28"/>
<stop offset="0.4568" stop-color="#FD76B7"/>
<stop offset="0.6688" stop-color="#8170EA"/>
<stop offset="0.8551" stop-color="#7FD7F2"/>
<stop offset="1" stop-color="#7ADBD1"/>
</linearGradient>
<linearGradient id="paint12_linear_975_11763" x1="0.277214" y1="17.3825" x2="40.9941" y2="23.2037" gradientUnits="userSpaceOnUse">
<stop stop-color="#FFB743"/>
<stop offset="0.2373" stop-color="#FF8E28"/>
<stop offset="0.4568" stop-color="#FD76B7"/>
<stop offset="0.6688" stop-color="#8170EA"/>
<stop offset="0.8551" stop-color="#7FD7F2"/>
<stop offset="1" stop-color="#7ADBD1"/>
</linearGradient>
<linearGradient id="paint13_linear_975_11763" x1="0.274432" y1="17.3831" x2="40.9913" y2="23.2044" gradientUnits="userSpaceOnUse">
<stop stop-color="#FFB743"/>
<stop offset="0.2373" stop-color="#FF8E28"/>
<stop offset="0.4568" stop-color="#FD76B7"/>
<stop offset="0.6688" stop-color="#8170EA"/>
<stop offset="0.8551" stop-color="#7FD7F2"/>
<stop offset="1" stop-color="#7ADBD1"/>
</linearGradient>
<linearGradient id="paint14_linear_975_11763" x1="0.276486" y1="17.3827" x2="40.9934" y2="23.204" gradientUnits="userSpaceOnUse">
<stop stop-color="#FFB743"/>
<stop offset="0.2373" stop-color="#FF8E28"/>
<stop offset="0.4568" stop-color="#FD76B7"/>
<stop offset="0.6688" stop-color="#8170EA"/>
<stop offset="0.8551" stop-color="#7FD7F2"/>
<stop offset="1" stop-color="#7ADBD1"/>
</linearGradient>
<linearGradient id="paint15_linear_975_11763" x1="0.276903" y1="17.3832" x2="40.9938" y2="23.2045" gradientUnits="userSpaceOnUse">
<stop stop-color="#FFB743"/>
<stop offset="0.2373" stop-color="#FF8E28"/>
<stop offset="0.4568" stop-color="#FD76B7"/>
<stop offset="0.6688" stop-color="#8170EA"/>
<stop offset="0.8551" stop-color="#7FD7F2"/>
<stop offset="1" stop-color="#7ADBD1"/>
</linearGradient>
<linearGradient id="paint16_linear_975_11763" x1="0.2767" y1="17.3829" x2="40.9936" y2="23.2042" gradientUnits="userSpaceOnUse">
<stop stop-color="#FFB743"/>
<stop offset="0.2373" stop-color="#FF8E28"/>
<stop offset="0.4568" stop-color="#FD76B7"/>
<stop offset="0.6688" stop-color="#8170EA"/>
<stop offset="0.8551" stop-color="#7FD7F2"/>
<stop offset="1" stop-color="#7ADBD1"/>
</linearGradient>
<linearGradient id="paint17_linear_975_11763" x1="0.27701" y1="17.3826" x2="40.9943" y2="23.2038" gradientUnits="userSpaceOnUse">
<stop stop-color="#FFB743"/>
<stop offset="0.2373" stop-color="#FF8E28"/>
<stop offset="0.4568" stop-color="#FD76B7"/>
<stop offset="0.6688" stop-color="#8170EA"/>
<stop offset="0.8551" stop-color="#7FD7F2"/>
<stop offset="1" stop-color="#7ADBD1"/>
</linearGradient>
<linearGradient id="paint18_linear_975_11763" x1="0.27499" y1="17.3827" x2="40.9919" y2="23.204" gradientUnits="userSpaceOnUse">
<stop stop-color="#FFB743"/>
<stop offset="0.2373" stop-color="#FF8E28"/>
<stop offset="0.4568" stop-color="#FD76B7"/>
<stop offset="0.6688" stop-color="#8170EA"/>
<stop offset="0.8551" stop-color="#7FD7F2"/>
<stop offset="1" stop-color="#7ADBD1"/>
</linearGradient>
<linearGradient id="paint19_linear_975_11763" x1="0.277195" y1="17.3831" x2="40.9941" y2="23.2044" gradientUnits="userSpaceOnUse">
<stop stop-color="#FFB743"/>
<stop offset="0.2373" stop-color="#FF8E28"/>
<stop offset="0.4568" stop-color="#FD76B7"/>
<stop offset="0.6688" stop-color="#8170EA"/>
<stop offset="0.8551" stop-color="#7FD7F2"/>
<stop offset="1" stop-color="#7ADBD1"/>
</linearGradient>
<linearGradient id="paint20_linear_975_11763" x1="0.277468" y1="17.3827" x2="40.9946" y2="23.204" gradientUnits="userSpaceOnUse">
<stop stop-color="#FFB743"/>
<stop offset="0.2373" stop-color="#FF8E28"/>
<stop offset="0.4568" stop-color="#FD76B7"/>
<stop offset="0.6688" stop-color="#8170EA"/>
<stop offset="0.8551" stop-color="#7FD7F2"/>
<stop offset="1" stop-color="#7ADBD1"/>
</linearGradient>
<linearGradient id="paint21_linear_975_11763" x1="0.276052" y1="17.3834" x2="40.9929" y2="23.2046" gradientUnits="userSpaceOnUse">
<stop stop-color="#FFB743"/>
<stop offset="0.2373" stop-color="#FF8E28"/>
<stop offset="0.4568" stop-color="#FD76B7"/>
<stop offset="0.6688" stop-color="#8170EA"/>
<stop offset="0.8551" stop-color="#7FD7F2"/>
<stop offset="1" stop-color="#7ADBD1"/>
</linearGradient>
<linearGradient id="paint22_linear_975_11763" x1="0.277069" y1="17.3825" x2="40.994" y2="23.2038" gradientUnits="userSpaceOnUse">
<stop stop-color="#FFB743"/>
<stop offset="0.2373" stop-color="#FF8E28"/>
<stop offset="0.4568" stop-color="#FD76B7"/>
<stop offset="0.6688" stop-color="#8170EA"/>
<stop offset="0.8551" stop-color="#7FD7F2"/>
<stop offset="1" stop-color="#7ADBD1"/>
</linearGradient>
<linearGradient id="paint23_linear_975_11763" x1="0.274147" y1="17.3837" x2="40.991" y2="23.2049" gradientUnits="userSpaceOnUse">
<stop stop-color="#FFB743"/>
<stop offset="0.2373" stop-color="#FF8E28"/>
<stop offset="0.4568" stop-color="#FD76B7"/>
<stop offset="0.6688" stop-color="#8170EA"/>
<stop offset="0.8551" stop-color="#7FD7F2"/>
<stop offset="1" stop-color="#7ADBD1"/>
</linearGradient>
<linearGradient id="paint24_linear_975_11763" x1="0.275483" y1="17.3832" x2="40.9924" y2="23.2045" gradientUnits="userSpaceOnUse">
<stop stop-color="#FFB743"/>
<stop offset="0.2373" stop-color="#FF8E28"/>
<stop offset="0.4568" stop-color="#FD76B7"/>
<stop offset="0.6688" stop-color="#8170EA"/>
<stop offset="0.8551" stop-color="#7FD7F2"/>
<stop offset="1" stop-color="#7ADBD1"/>
</linearGradient>
<linearGradient id="paint25_linear_975_11763" x1="0.277114" y1="17.3837" x2="40.994" y2="23.2049" gradientUnits="userSpaceOnUse">
<stop stop-color="#FFB743"/>
<stop offset="0.2373" stop-color="#FF8E28"/>
<stop offset="0.4568" stop-color="#FD76B7"/>
<stop offset="0.6688" stop-color="#8170EA"/>
<stop offset="0.8551" stop-color="#7FD7F2"/>
<stop offset="1" stop-color="#7ADBD1"/>
</linearGradient>
<linearGradient id="paint26_linear_975_11763" x1="0.276498" y1="17.3832" x2="40.9934" y2="23.2045" gradientUnits="userSpaceOnUse">
<stop stop-color="#FFB743"/>
<stop offset="0.2373" stop-color="#FF8E28"/>
<stop offset="0.4568" stop-color="#FD76B7"/>
<stop offset="0.6688" stop-color="#8170EA"/>
<stop offset="0.8551" stop-color="#7FD7F2"/>
<stop offset="1" stop-color="#7ADBD1"/>
</linearGradient>
<linearGradient id="paint27_linear_975_11763" x1="0.274458" y1="17.383" x2="40.9916" y2="23.2043" gradientUnits="userSpaceOnUse">
<stop stop-color="#FFB743"/>
<stop offset="0.2373" stop-color="#FF8E28"/>
<stop offset="0.4568" stop-color="#FD76B7"/>
<stop offset="0.6688" stop-color="#8170EA"/>
<stop offset="0.8551" stop-color="#7FD7F2"/>
<stop offset="1" stop-color="#7ADBD1"/>
</linearGradient>
<linearGradient id="paint28_linear_975_11763" x1="0.275458" y1="17.3826" x2="40.9923" y2="23.2039" gradientUnits="userSpaceOnUse">
<stop stop-color="#FFB743"/>
<stop offset="0.2373" stop-color="#FF8E28"/>
<stop offset="0.4568" stop-color="#FD76B7"/>
<stop offset="0.6688" stop-color="#8170EA"/>
<stop offset="0.8551" stop-color="#7FD7F2"/>
<stop offset="1" stop-color="#7ADBD1"/>
</linearGradient>
<linearGradient id="paint29_linear_975_11763" x1="0.276605" y1="17.3827" x2="40.9935" y2="23.2039" gradientUnits="userSpaceOnUse">
<stop stop-color="#FFB743"/>
<stop offset="0.2373" stop-color="#FF8E28"/>
<stop offset="0.4568" stop-color="#FD76B7"/>
<stop offset="0.6688" stop-color="#8170EA"/>
<stop offset="0.8551" stop-color="#7FD7F2"/>
<stop offset="1" stop-color="#7ADBD1"/>
</linearGradient>
<linearGradient id="paint30_linear_975_11763" x1="0.274497" y1="17.3833" x2="40.9914" y2="23.2046" gradientUnits="userSpaceOnUse">
<stop stop-color="#FFB743"/>
<stop offset="0.2373" stop-color="#FF8E28"/>
<stop offset="0.4568" stop-color="#FD76B7"/>
<stop offset="0.6688" stop-color="#8170EA"/>
<stop offset="0.8551" stop-color="#7FD7F2"/>
<stop offset="1" stop-color="#7ADBD1"/>
</linearGradient>
<linearGradient id="paint31_linear_975_11763" x1="0.274489" y1="17.3825" x2="40.9914" y2="23.2038" gradientUnits="userSpaceOnUse">
<stop stop-color="#FFB743"/>
<stop offset="0.2373" stop-color="#FF8E28"/>
<stop offset="0.4568" stop-color="#FD76B7"/>
<stop offset="0.6688" stop-color="#8170EA"/>
<stop offset="0.8551" stop-color="#7FD7F2"/>
<stop offset="1" stop-color="#7ADBD1"/>
</linearGradient>
<linearGradient id="paint32_linear_975_11763" x1="0.275671" y1="17.3833" x2="40.9926" y2="23.2045" gradientUnits="userSpaceOnUse">
<stop stop-color="#FFB743"/>
<stop offset="0.2373" stop-color="#FF8E28"/>
<stop offset="0.4568" stop-color="#FD76B7"/>
<stop offset="0.6688" stop-color="#8170EA"/>
<stop offset="0.8551" stop-color="#7FD7F2"/>
<stop offset="1" stop-color="#7ADBD1"/>
</linearGradient>
<linearGradient id="paint33_linear_975_11763" x1="0.276244" y1="17.383" x2="40.9935" y2="23.2042" gradientUnits="userSpaceOnUse">
<stop stop-color="#FFB743"/>
<stop offset="0.2373" stop-color="#FF8E28"/>
<stop offset="0.4568" stop-color="#FD76B7"/>
<stop offset="0.6688" stop-color="#8170EA"/>
<stop offset="0.8551" stop-color="#7FD7F2"/>
<stop offset="1" stop-color="#7ADBD1"/>
</linearGradient>
<linearGradient id="paint34_linear_975_11763" x1="0.274394" y1="17.3831" x2="40.9913" y2="23.2044" gradientUnits="userSpaceOnUse">
<stop stop-color="#FFB743"/>
<stop offset="0.2373" stop-color="#FF8E28"/>
<stop offset="0.4568" stop-color="#FD76B7"/>
<stop offset="0.6688" stop-color="#8170EA"/>
<stop offset="0.8551" stop-color="#7FD7F2"/>
<stop offset="1" stop-color="#7ADBD1"/>
</linearGradient>
<linearGradient id="paint35_linear_975_11763" x1="0.277315" y1="17.3831" x2="40.9941" y2="23.2043" gradientUnits="userSpaceOnUse">
<stop stop-color="#FFB743"/>
<stop offset="0.2373" stop-color="#FF8E28"/>
<stop offset="0.4568" stop-color="#FD76B7"/>
<stop offset="0.6688" stop-color="#8170EA"/>
<stop offset="0.8551" stop-color="#7FD7F2"/>
<stop offset="1" stop-color="#7ADBD1"/>
</linearGradient>
<linearGradient id="paint36_linear_975_11763" x1="0.274394" y1="17.3836" x2="40.9913" y2="23.2048" gradientUnits="userSpaceOnUse">
<stop stop-color="#FFB743"/>
<stop offset="0.2373" stop-color="#FF8E28"/>
<stop offset="0.4568" stop-color="#FD76B7"/>
<stop offset="0.6688" stop-color="#8170EA"/>
<stop offset="0.8551" stop-color="#7FD7F2"/>
<stop offset="1" stop-color="#7ADBD1"/>
</linearGradient>
<linearGradient id="paint37_linear_975_11763" x1="0.274701" y1="17.383" x2="40.9916" y2="23.2043" gradientUnits="userSpaceOnUse">
<stop stop-color="#FFB743"/>
<stop offset="0.2373" stop-color="#FF8E28"/>
<stop offset="0.4568" stop-color="#FD76B7"/>
<stop offset="0.6688" stop-color="#8170EA"/>
<stop offset="0.8551" stop-color="#7FD7F2"/>
<stop offset="1" stop-color="#7ADBD1"/>
</linearGradient>
<linearGradient id="paint38_linear_975_11763" x1="0.276432" y1="17.383" x2="40.9934" y2="23.2042" gradientUnits="userSpaceOnUse">
<stop stop-color="#FFB743"/>
<stop offset="0.2373" stop-color="#FF8E28"/>
<stop offset="0.4568" stop-color="#FD76B7"/>
<stop offset="0.6688" stop-color="#8170EA"/>
<stop offset="0.8551" stop-color="#7FD7F2"/>
<stop offset="1" stop-color="#7ADBD1"/>
</linearGradient>
<linearGradient id="paint39_linear_975_11763" x1="0.277011" y1="17.3833" x2="40.9942" y2="23.2046" gradientUnits="userSpaceOnUse">
<stop stop-color="#FFB743"/>
<stop offset="0.2373" stop-color="#FF8E28"/>
<stop offset="0.4568" stop-color="#FD76B7"/>
<stop offset="0.6688" stop-color="#8170EA"/>
<stop offset="0.8551" stop-color="#7FD7F2"/>
<stop offset="1" stop-color="#7ADBD1"/>
</linearGradient>
<linearGradient id="paint40_linear_975_11763" x1="0.273936" y1="17.383" x2="40.9908" y2="23.2042" gradientUnits="userSpaceOnUse">
<stop stop-color="#FFB743"/>
<stop offset="0.2373" stop-color="#FF8E28"/>
<stop offset="0.4568" stop-color="#FD76B7"/>
<stop offset="0.6688" stop-color="#8170EA"/>
<stop offset="0.8551" stop-color="#7FD7F2"/>
<stop offset="1" stop-color="#7ADBD1"/>
</linearGradient>
<linearGradient id="paint41_linear_975_11763" x1="0.274693" y1="17.3829" x2="40.9916" y2="23.2041" gradientUnits="userSpaceOnUse">
<stop stop-color="#FFB743"/>
<stop offset="0.2373" stop-color="#FF8E28"/>
<stop offset="0.4568" stop-color="#FD76B7"/>
<stop offset="0.6688" stop-color="#8170EA"/>
<stop offset="0.8551" stop-color="#7FD7F2"/>
<stop offset="1" stop-color="#7ADBD1"/>
</linearGradient>
<linearGradient id="paint42_linear_975_11763" x1="0.274055" y1="17.3826" x2="40.991" y2="23.2039" gradientUnits="userSpaceOnUse">
<stop stop-color="#FFB743"/>
<stop offset="0.2373" stop-color="#FF8E28"/>
<stop offset="0.4568" stop-color="#FD76B7"/>
<stop offset="0.6688" stop-color="#8170EA"/>
<stop offset="0.8551" stop-color="#7FD7F2"/>
<stop offset="1" stop-color="#7ADBD1"/>
</linearGradient>
<linearGradient id="paint43_linear_975_11763" x1="0.275189" y1="17.383" x2="40.9921" y2="23.2043" gradientUnits="userSpaceOnUse">
<stop stop-color="#FFB743"/>
<stop offset="0.2373" stop-color="#FF8E28"/>
<stop offset="0.4568" stop-color="#FD76B7"/>
<stop offset="0.6688" stop-color="#8170EA"/>
<stop offset="0.8551" stop-color="#7FD7F2"/>
<stop offset="1" stop-color="#7ADBD1"/>
</linearGradient>
<linearGradient id="paint44_linear_975_11763" x1="0.275858" y1="17.3832" x2="40.9927" y2="23.2045" gradientUnits="userSpaceOnUse">
<stop stop-color="#FFB743"/>
<stop offset="0.2373" stop-color="#FF8E28"/>
<stop offset="0.4568" stop-color="#FD76B7"/>
<stop offset="0.6688" stop-color="#8170EA"/>
<stop offset="0.8551" stop-color="#7FD7F2"/>
<stop offset="1" stop-color="#7ADBD1"/>
</linearGradient>
<linearGradient id="paint45_linear_975_11763" x1="0.27653" y1="17.3835" x2="40.9934" y2="23.2047" gradientUnits="userSpaceOnUse">
<stop stop-color="#FFB743"/>
<stop offset="0.2373" stop-color="#FF8E28"/>
<stop offset="0.4568" stop-color="#FD76B7"/>
<stop offset="0.6688" stop-color="#8170EA"/>
<stop offset="0.8551" stop-color="#7FD7F2"/>
<stop offset="1" stop-color="#7ADBD1"/>
</linearGradient>
<linearGradient id="paint46_linear_975_11763" x1="0.275004" y1="17.3831" x2="40.9919" y2="23.2043" gradientUnits="userSpaceOnUse">
<stop stop-color="#FFB743"/>
<stop offset="0.2373" stop-color="#FF8E28"/>
<stop offset="0.4568" stop-color="#FD76B7"/>
<stop offset="0.6688" stop-color="#8170EA"/>
<stop offset="0.8551" stop-color="#7FD7F2"/>
<stop offset="1" stop-color="#7ADBD1"/>
</linearGradient>
<linearGradient id="paint47_linear_975_11763" x1="0.277194" y1="17.3831" x2="40.9941" y2="23.2043" gradientUnits="userSpaceOnUse">
<stop stop-color="#FFB743"/>
<stop offset="0.2373" stop-color="#FF8E28"/>
<stop offset="0.4568" stop-color="#FD76B7"/>
<stop offset="0.6688" stop-color="#8170EA"/>
<stop offset="0.8551" stop-color="#7FD7F2"/>
<stop offset="1" stop-color="#7ADBD1"/>
</linearGradient>
<linearGradient id="paint48_linear_975_11763" x1="0.274617" y1="17.3835" x2="40.9915" y2="23.2047" gradientUnits="userSpaceOnUse">
<stop stop-color="#FFB743"/>
<stop offset="0.2373" stop-color="#FF8E28"/>
<stop offset="0.4568" stop-color="#FD76B7"/>
<stop offset="0.6688" stop-color="#8170EA"/>
<stop offset="0.8551" stop-color="#7FD7F2"/>
<stop offset="1" stop-color="#7ADBD1"/>
</linearGradient>
<linearGradient id="paint49_linear_975_11763" x1="0.276628" y1="17.3833" x2="40.9935" y2="23.2045" gradientUnits="userSpaceOnUse">
<stop stop-color="#FFB743"/>
<stop offset="0.2373" stop-color="#FF8E28"/>
<stop offset="0.4568" stop-color="#FD76B7"/>
<stop offset="0.6688" stop-color="#8170EA"/>
<stop offset="0.8551" stop-color="#7FD7F2"/>
<stop offset="1" stop-color="#7ADBD1"/>
</linearGradient>
<linearGradient id="paint50_linear_975_11763" x1="0.277007" y1="17.3831" x2="40.9939" y2="23.2043" gradientUnits="userSpaceOnUse">
<stop stop-color="#FFB743"/>
<stop offset="0.2373" stop-color="#FF8E28"/>
<stop offset="0.4568" stop-color="#FD76B7"/>
<stop offset="0.6688" stop-color="#8170EA"/>
<stop offset="0.8551" stop-color="#7FD7F2"/>
<stop offset="1" stop-color="#7ADBD1"/>
</linearGradient>
<linearGradient id="paint51_linear_975_11763" x1="0.277464" y1="17.3826" x2="40.9943" y2="23.2039" gradientUnits="userSpaceOnUse">
<stop stop-color="#FFB743"/>
<stop offset="0.2373" stop-color="#FF8E28"/>
<stop offset="0.4568" stop-color="#FD76B7"/>
<stop offset="0.6688" stop-color="#8170EA"/>
<stop offset="0.8551" stop-color="#7FD7F2"/>
<stop offset="1" stop-color="#7ADBD1"/>
</linearGradient>
<linearGradient id="paint52_linear_975_11763" x1="0.275394" y1="17.3831" x2="40.9927" y2="23.2044" gradientUnits="userSpaceOnUse">
<stop stop-color="#FFB743"/>
<stop offset="0.2373" stop-color="#FF8E28"/>
<stop offset="0.4568" stop-color="#FD76B7"/>
<stop offset="0.6688" stop-color="#8170EA"/>
<stop offset="0.8551" stop-color="#7FD7F2"/>
<stop offset="1" stop-color="#7ADBD1"/>
</linearGradient>
<linearGradient id="paint53_linear_975_11763" x1="0.276776" y1="17.3834" x2="40.9937" y2="23.2046" gradientUnits="userSpaceOnUse">
<stop stop-color="#FFB743"/>
<stop offset="0.2373" stop-color="#FF8E28"/>
<stop offset="0.4568" stop-color="#FD76B7"/>
<stop offset="0.6688" stop-color="#8170EA"/>
<stop offset="0.8551" stop-color="#7FD7F2"/>
<stop offset="1" stop-color="#7ADBD1"/>
</linearGradient>
<linearGradient id="paint54_linear_975_11763" x1="0.275045" y1="17.3835" x2="40.9919" y2="23.2048" gradientUnits="userSpaceOnUse">
<stop stop-color="#FFB743"/>
<stop offset="0.2373" stop-color="#FF8E28"/>
<stop offset="0.4568" stop-color="#FD76B7"/>
<stop offset="0.6688" stop-color="#8170EA"/>
<stop offset="0.8551" stop-color="#7FD7F2"/>
<stop offset="1" stop-color="#7ADBD1"/>
</linearGradient>
<linearGradient id="paint55_linear_975_11763" x1="0.2746" y1="17.3833" x2="40.9915" y2="23.2045" gradientUnits="userSpaceOnUse">
<stop stop-color="#FFB743"/>
<stop offset="0.2373" stop-color="#FF8E28"/>
<stop offset="0.4568" stop-color="#FD76B7"/>
<stop offset="0.6688" stop-color="#8170EA"/>
<stop offset="0.8551" stop-color="#7FD7F2"/>
<stop offset="1" stop-color="#7ADBD1"/>
</linearGradient>
<linearGradient id="paint56_linear_975_11763" x1="0.274417" y1="17.3825" x2="40.9913" y2="23.2038" gradientUnits="userSpaceOnUse">
<stop stop-color="#FFB743"/>
<stop offset="0.2373" stop-color="#FF8E28"/>
<stop offset="0.4568" stop-color="#FD76B7"/>
<stop offset="0.6688" stop-color="#8170EA"/>
<stop offset="0.8551" stop-color="#7FD7F2"/>
<stop offset="1" stop-color="#7ADBD1"/>
</linearGradient>
<linearGradient id="paint57_linear_975_11763" x1="0.27434" y1="17.3829" x2="40.9912" y2="23.2041" gradientUnits="userSpaceOnUse">
<stop stop-color="#FFB743"/>
<stop offset="0.2373" stop-color="#FF8E28"/>
<stop offset="0.4568" stop-color="#FD76B7"/>
<stop offset="0.6688" stop-color="#8170EA"/>
<stop offset="0.8551" stop-color="#7FD7F2"/>
<stop offset="1" stop-color="#7ADBD1"/>
</linearGradient>
<linearGradient id="paint58_linear_975_11763" x1="0.275167" y1="17.3834" x2="40.9921" y2="23.2047" gradientUnits="userSpaceOnUse">
<stop stop-color="#FFB743"/>
<stop offset="0.2373" stop-color="#FF8E28"/>
<stop offset="0.4568" stop-color="#FD76B7"/>
<stop offset="0.6688" stop-color="#8170EA"/>
<stop offset="0.8551" stop-color="#7FD7F2"/>
<stop offset="1" stop-color="#7ADBD1"/>
</linearGradient>
<linearGradient id="paint59_linear_975_11763" x1="0.275845" y1="17.3829" x2="40.9928" y2="23.2041" gradientUnits="userSpaceOnUse">
<stop stop-color="#FFB743"/>
<stop offset="0.2373" stop-color="#FF8E28"/>
<stop offset="0.4568" stop-color="#FD76B7"/>
<stop offset="0.6688" stop-color="#8170EA"/>
<stop offset="0.8551" stop-color="#7FD7F2"/>
<stop offset="1" stop-color="#7ADBD1"/>
</linearGradient>
<linearGradient id="paint60_linear_975_11763" x1="0.277862" y1="17.3826" x2="40.9947" y2="23.2038" gradientUnits="userSpaceOnUse">
<stop stop-color="#FFB743"/>
<stop offset="0.2373" stop-color="#FF8E28"/>
<stop offset="0.4568" stop-color="#FD76B7"/>
<stop offset="0.6688" stop-color="#8170EA"/>
<stop offset="0.8551" stop-color="#7FD7F2"/>
<stop offset="1" stop-color="#7ADBD1"/>
</linearGradient>
<linearGradient id="paint61_linear_975_11763" x1="0.274848" y1="17.3834" x2="40.9913" y2="23.2045" gradientUnits="userSpaceOnUse">
<stop stop-color="#FFB743"/>
<stop offset="0.2373" stop-color="#FF8E28"/>
<stop offset="0.4568" stop-color="#FD76B7"/>
<stop offset="0.6688" stop-color="#8170EA"/>
<stop offset="0.8551" stop-color="#7FD7F2"/>
<stop offset="1" stop-color="#7ADBD1"/>
</linearGradient>
</defs>
</svg>
